<svg aria-hidden="true" style="position:absolute;width:0;height:0;overflow:hidden" xmlns="http://www.w3.org/2000/svg">
  <defs>
    <symbol id="icon-arrows" viewBox="0 0 12 32">
      <path fill="#ff5722" style="fill:var(--color1, #ff5722)" d="M8.287 31.99h3.948l-1.974-1.974-1.974 1.974zM8.287 25.301h3.948l-1.974-1.974-1.974 1.974zM8.287 18.608h3.948l-1.974-1.974-1.974 1.974zM8.287 11.918h3.948l-1.974-1.974-1.974 1.974zM8.287 5.229h3.948l-1.974-1.977-1.974 1.977zM0 28.738h3.948l-1.974-1.974L0 28.738zM0 22.046h3.948l-1.974-1.974L0 22.046zM0 15.356h3.948l-1.974-1.974L0 15.356zM0 8.666h3.948L1.974 6.692 0 8.666zM0 1.974h3.948L1.974 0 0 1.974z"/>
    </symbol>
    <symbol id="icon-join-el" viewBox="0 0 33 32">
      <path fill="#ff5722" style="fill:var(--color1, #ff5722)" d="M.875 23.199a.474.474 0 0 0 0 .95.474.474 0 0 0 0-.95zM8.949 24.15c.261 0 .472-.213.472-.475s-.211-.475-.472-.475-.472.213-.472.475c0 .263.211.475.472.475zM4.912 23.199a.474.474 0 0 0 0 .95.474.474 0 0 0 0-.95zM4.845 19.334a.474.474 0 0 0 0 .95.474.474 0 0 0 0-.95zM.808 19.334a.474.474 0 0 0 0 .95.474.474 0 0 0 0-.95zM12.919 19.334a.474.474 0 0 0 0 .95.474.474 0 0 0 0-.95zM8.882 19.334a.474.474 0 0 0 0 .95.474.474 0 0 0 0-.95zM.875 30.934a.474.474 0 0 0 0 .95.474.474 0 0 0 0-.95zM4.845 27.066a.474.474 0 0 0 0 .95.474.474 0 0 0 0-.95zM.808 27.066a.474.474 0 0 0 0 .95.474.474 0 0 0 0-.95zM16.89 15.467a.474.474 0 0 0 0 .95.474.474 0 0 0 0-.95zM8.815 15.467a.474.474 0 0 0 0 .95.474.474 0 0 0 0-.95zM12.852 16.418c.261 0 .472-.213.472-.475s-.211-.475-.472-.475-.472.213-.472.475.211.475.472.475zM4.777 15.467a.474.474 0 0 0 0 .95.474.474 0 0 0 0-.95zM.739 15.467a.474.474 0 0 0 0 .95.474.474 0 0 0 0-.95zM16.821 11.6a.474.474 0 0 0 0 .95.474.474 0 0 0 0-.95zM12.784 11.6a.474.474 0 0 0 0 .95.474.474 0 0 0 0-.95zM8.747 11.6a.474.474 0 0 0 0 .95.474.474 0 0 0 0-.95zM20.86 11.6a.474.474 0 0 0 0 .95.474.474 0 0 0 0-.95zM.673 11.6a.474.474 0 0 0 0 .95.474.474 0 0 0 0-.95zM4.71 11.6a.474.474 0 0 0 0 .95.474.474 0 0 0 0-.95zM.606 7.732a.474.474 0 0 0 0 .95.474.474 0 0 0 0-.95zM16.754 8.683c.261 0 .472-.213.472-.475s-.211-.475-.472-.475-.472.213-.472.475.211.475.472.475zM24.828 8.683c.261 0 .472-.213.472-.475s-.211-.475-.472-.475-.472.213-.472.475.211.475.472.475zM12.717 7.732a.474.474 0 0 0 0 .95.474.474 0 0 0 0-.95zM8.68 7.732a.474.474 0 0 0 0 .95.474.474 0 0 0 0-.95zM4.643 7.732a.474.474 0 0 0 0 .95.474.474 0 0 0 0-.95zM20.791 7.732a.474.474 0 0 0 0 .95.474.474 0 0 0 0-.95zM.539 4.816c.261 0 .472-.213.472-.475S.8 3.866.539 3.866s-.472.213-.472.475.211.475.472.475zM20.724 3.867a.474.474 0 0 0 0 .95.474.474 0 0 0 0-.95zM4.576 3.867a.474.474 0 0 0 0 .95.474.474 0 0 0 0-.95zM12.65 3.867a.474.474 0 0 0 0 .95.474.474 0 0 0 0-.95zM8.613 3.867a.474.474 0 0 0 0 .95.474.474 0 0 0 0-.95zM16.687 3.867a.474.474 0 0 0 0 .95.474.474 0 0 0 0-.95zM28.798 3.867a.474.474 0 0 0 0 .95.474.474 0 0 0 0-.95zM24.761 3.867a.474.474 0 0 0 0 .95.474.474 0 0 0 0-.95zM4.509.949a.474.474 0 0 0 0-.95.474.474 0 0 0 0 .95zM.472.949a.474.474 0 0 0 0-.949.475.475 0 0 0 0 .95V.948zM28.731.951c.261 0 .472-.213.472-.475s-.211-.475-.472-.475-.472.213-.472.475.211.475.472.475zM16.62.949a.474.474 0 0 0 0-.95.474.474 0 0 0 0 .95zM20.657.949a.474.474 0 0 0 0-.95.474.474 0 0 0 0 .95zM24.694.949a.474.474 0 0 0 0-.95.474.474 0 0 0 0 .95zM8.546.949a.474.474 0 0 0 0-.95.474.474 0 0 0 0 .95zM32.768.949a.474.474 0 0 0 0-.95.474.474 0 0 0 0 .95zM12.583.949a.474.474 0 0 0 0-.95.474.474 0 0 0 0 .95z"/>
    </symbol>
  </defs>
</svg>
